<?xml version="1.0" encoding="UTF-8"?>
<svg id="Camada_2" data-name="Camada 2" xmlns="http://www.w3.org/2000/svg" viewBox="0 0 1695.48 610.47">
  <defs>
    <style>
      .cls-1 {
        fill: #f2e6dd;
      }
    </style>
  </defs>
  <g id="Camada_1-2" data-name="Camada 1">
    <g>
      <path class="cls-1" d="M355.54,464.81c-47.44,0-113.63,18.16-155.81,18.16C77.9,482.97,0,401.55,0,277.37S77.32,70.02,200.91,70.02h12.89c48.03,0,66.19,14.06,114.22,14.06l9.97,71.94c-37.49-60.92-74.99-76.04-124.77-76.04-78.49,0-150.53,70.87-150.53,196.81,0,117.73,65.02,197.39,142.33,197.39,49.2,0,106.6-11.02,150.53-105.91v96.54Z"/>
      <path class="cls-1" d="M466.99,455.47c-20,18-46.5,27.5-73.5,27.5-39.5,0-66.5-16.5-66.5-59.5,0-72,83.5-84.5,139.5-84.5,0-31,2-83.5-42.5-83.5-36.5,0-43.5,25.5-43.5,57,0,10-14,15.5-22,15.5-11,0-23.5-8.5-23.5-20.5,0-46.5,60-59.5,96.5-59.5,41,0,84.5,17.5,85,65l1,121c0,13.5,11.5,28.5,25.5,30.5v4l-68.5,14.5c-.5-2.5-7.5-27-7.5-27.5ZM466.49,347.47c-4.5-.5-8.5-1-13-1-38.5,0-75,26.5-75,66.5,0,30.5,12,52.5,45,52.5,16,0,30.5-9.5,43-19.5v-98.5Z"/>
      <path class="cls-1" d="M557.99,257.97l73-10v61c20-33.5,46-61,87.5-61,17.5,0,31.5,2.5,43,15.5,17,19.5.5,43-19,43-8,0-16-4-23-13-5.5-7-14-19.5-34.5-18.5-22,1-41,26.5-54,54.5v102c0,23,5.5,32.5,19.5,47.5v4h-88v-4c15-15,18.5-24.5,18.5-47.5v-122c0-23-5.5-34.5-23-47.5v-4Z"/>
      <path class="cls-1" d="M998.99,120.47v313.5c0,17,15.5,29,25.5,30.5v4l-68.5,14.5-4-17.5c-15,9.5-32,17.5-55,17.5-70.5,0-117.5-47-117.5-117.5s47-120,117.5-120c19.5,0,37,5,52,12M948.99,451.47v-163.5c-12.5-20-29.5-35-52-35-39,0-65,46.5-65,112.5s26,110,65,110c19.5,0,38.5-8.5,52-24Z"/>
      <path class="cls-1" d="M1184.99,455.47c-20,18-46.5,27.5-73.5,27.5-39.5,0-66.5-16.5-66.5-59.5,0-72,83.5-84.5,139.5-84.5,0-31,2-83.5-42.5-83.5-36.5,0-43.5,25.5-43.5,57,0,10-14,15.5-22,15.5-11,0-23.5-8.5-23.5-20.5,0-46.5,60-59.5,96.5-59.5,41,0,84.5,17.5,85,65l1,121c0,13.5,11.5,28.5,25.5,30.5v4l-68.5,14.5c-.5-2.5-7.5-27-7.5-27.5ZM1184.49,347.47c-4.5-.5-8.5-1-13-1-38.5,0-75,26.5-75,66.5,0,30.5,12,52.5,45,52.5,16,0,30.5-9.5,43-19.5v-98.5Z"/>
      <path class="cls-1" d="M1275.99,257.97l71-10,2,14c15-8.5,33-14,52-14,70.5,0,117.5,47,117.5,117.5s-47,117.5-117.5,117.5c-19.5,0-37-3.5-52-10v86c0,23,5.5,32.5,19.5,47.5v4h-88v-4c15-15,18.5-24.5,18.5-47.5v-249.5c0-23-5.5-34.5-23-47.5v-4ZM1348.99,283.97v162.5c12.5,18.5,30.5,29,52,29,39,0,65-44,65-110s-26-110-65-110c-21.5,0-39.5,10-52,28.5Z"/>
      <path class="cls-1" d="M1628.98,248.83h51.5v7.5h-51.5v156.5c0,23.5-.5,47,28,47,9.5,0,21.5-1.5,35-15.5l3.5,2.5c-15,21.5-37,37-63.5,37-42.5.5-53-24.5-53-74v-153.5h-41.5v-7.5h91.5Z"/>
      <path class="cls-1" d="M1583.86,265.63c-8.28-.98-1.4-20.28-.59-35.03.31-5.67,1.3-11.51,1.79-17.39,1.01-12.07,1.01-24.32-3.58-35.48-1.25-3.03-2.84-5.98-4.83-8.82-5.75-8.16-14.54-13.24-21.18-20.29-3.19-3.38-5.76-7.08-7.8-11.04-.05-.28-.09-.54-.13-.8-.18-1.19-.28-2.28-.28-3.24V35.24c0-11.72,9.22-21.23,20.6-21.23h0c.72,0,1.41.29,1.92.82h0c.51.52.8,1.24.8,1.98v63.79c0,12.66,9.96,22.92,22.24,22.92h0V25.48c0-6.33,4.98-11.46,11.13-11.46h0c6.14,0,11.13,5.13,11.13,11.46v78.04h0c12.28,0,22.24-10.26,22.24-22.92V16.81c0-.74.29-1.45.8-1.98h0c.51-.52,1.2-.82,1.92-.82h0c10.79,0,19.54,9.01,19.54,20.13v102.63c-.5.99-1.02,1.95-1.58,2.9-7.22,12.1-21.12,19.17-28.88,30.46-1.68,2.46-3.05,4.95-4.12,7.48-4.88,11.38-4.21,23.42-3.29,35.58.12,1.56.33,3.14.36,4.72.38,19.16,11.35,52.86,2.15,48.13l-40.33-.42Z"/>
      <polyline class="cls-1" points="1100.88 249.08 1554.63 249.08 1554.63 256.58 1100.88 256.58 660.35 256.58 434.99 256.58 434.99 249.08"/>
      <path class="cls-1" d="M996.75,260.93c-4.72-10.69-4.08-22-3.18-33.43.12-1.47.24-2.95.35-4.43,1.37-17.81,4.26-36.41,6.99-55.27v-96.8S1003.91,0,1003.91,0c-42.5-.5-53,108.78-53,158.28v10.9c2.01,14.14,4.08,28.17,5.48,41.98.54,5.31,1.26,10.81,1.73,16.34.98,11.34.98,22.85-3.47,33.33l42.1.1Z"/>
    </g>
  </g>
</svg>