<?xml version="1.0" encoding="UTF-8"?>
<svg id="Camada_2" data-name="Camada 2" xmlns="http://www.w3.org/2000/svg" xmlns:xlink="http://www.w3.org/1999/xlink" viewBox="0 0 1960.26 1254.32">
  <defs>
    <style>
      .cls-1 {
        opacity: .29;
      }

      .cls-2 {
        fill: #f0eee9;
      }

      .cls-3 {
        fill: none;
      }

      .cls-4 {
        fill: #c09f7b;
      }

      .cls-5 {
        clip-path: url(#clippath);
      }
    </style>
    <clipPath id="clippath">
      <rect class="cls-3" width="1960.26" height="1254.32"/>
    </clipPath>
  </defs>
  <g id="Camada_2-2" data-name="Camada 2">
    <g class="cls-5">
      <g>
        <rect class="cls-2" width="1960.26" height="1281.86"/>
        <g class="cls-1">
          <path class="cls-4" d="M228.21,794.44h-16.01c-.49,0-.9-.36-.98-.84-3.4-21.17-21.8-37.4-43.92-37.4-5.75,0-11.24,1.11-16.28,3.1-.23.09-.48.09-.71,0-5.05-1.99-10.54-3.1-16.28-3.1-22.12,0-40.51,16.23-43.91,37.4-.08.48-.49.84-.98.84h-16.01c-2.4,0-4.34,1.94-4.34,4.34v3.81c0,2.4,1.94,4.34,4.34,4.34h16.01c.49,0,.9.36.98.84,3.4,21.17,21.79,37.4,43.91,37.4,5.75,0,11.24-1.11,16.28-3.1.23-.09.48-.09.71,0,5.05,1.99,10.54,3.1,16.28,3.1,22.12,0,40.51-16.23,43.92-37.4.08-.48.49-.84.98-.84h16.01c2.4,0,4.34-1.94,4.34-4.34v-3.81c0-2.4-1.94-4.34-4.34-4.34ZM135.3,800.68c0-4.34.87-8.48,2.45-12.26.35-.83,1.54-.82,1.85.02,2,5.32,5.14,10.27,7.8,14.45,7.14,11.21,10.15,17.32,6.09,23.1-.06.09-.14.17-.23.24-.29.22-.57.43-.87.63-1.04.73-2.44.73-3.47,0-8.23-5.8-13.63-15.37-13.63-26.19ZM165.62,805.8c-.15.95-1.44,1.14-1.87.28-1.8-3.59-3.93-6.94-5.81-9.9-6.53-10.24-9.54-16.03-7.07-21.2.3-.62,1.09-.79,1.65-.39,8.17,5.8,13.51,15.34,13.51,26.1,0,1.74-.14,3.45-.41,5.12ZM134.02,832.69c-17.65,0-32.01-14.36-32.01-32.01s14.36-32.01,32.01-32.01h.07c.87,0,1.31,1.03.72,1.66-7.43,7.95-11.99,18.62-11.99,30.34s4.56,22.39,11.99,30.34c.59.63.15,1.66-.72,1.66h-.07ZM167.31,832.69h-.07c-.87,0-1.31-1.03-.72-1.66,7.43-7.95,11.99-18.62,11.99-30.34s-4.55-22.36-11.96-30.3l-.03-.04c-.59-.63-.14-1.66.72-1.67h.07c17.65,0,32.01,14.36,32.01,32.01s-14.36,32.01-32.01,32.01Z"/>
          <path class="cls-4" d="M371.69,794.44h-16.01c-.49,0-.9-.36-.98-.84-3.4-21.17-21.8-37.4-43.92-37.4-5.75,0-11.24,1.11-16.28,3.1-.23.09-.48.09-.71,0-5.05-1.99-10.54-3.1-16.28-3.1-22.12,0-40.51,16.23-43.91,37.4-.08.48-.49.84-.98.84h-16.01c-2.4,0-4.34,1.94-4.34,4.34v3.81c0,2.4,1.94,4.34,4.34,4.34h16.01c.49,0,.9.36.98.84,3.4,21.17,21.79,37.4,43.91,37.4,5.75,0,11.24-1.11,16.28-3.1.23-.09.48-.09.71,0,5.05,1.99,10.54,3.1,16.28,3.1,22.12,0,40.51-16.23,43.92-37.4.08-.48.49-.84.98-.84h16.01c2.4,0,4.34-1.94,4.34-4.34v-3.81c0-2.4-1.94-4.34-4.34-4.34ZM278.78,800.68c0-4.34.87-8.48,2.45-12.26.35-.83,1.54-.82,1.85.02,2,5.32,5.14,10.27,7.8,14.45,7.14,11.21,10.15,17.32,6.09,23.1-.06.09-.14.17-.23.24-.29.22-.57.43-.87.63-1.04.73-2.44.73-3.47,0-8.23-5.8-13.63-15.37-13.63-26.19ZM309.1,805.8c-.15.95-1.44,1.14-1.87.28-1.8-3.59-3.93-6.94-5.81-9.9-6.53-10.24-9.54-16.03-7.07-21.2.3-.62,1.09-.79,1.65-.39,8.17,5.8,13.51,15.34,13.51,26.1,0,1.74-.14,3.45-.41,5.12ZM277.5,832.69c-17.65,0-32.01-14.36-32.01-32.01s14.36-32.01,32.01-32.01h.07c.87,0,1.31,1.03.72,1.66-7.43,7.95-11.99,18.62-11.99,30.34s4.56,22.39,11.99,30.34c.59.63.15,1.66-.72,1.66h-.07ZM310.78,832.69h-.07c-.87,0-1.31-1.03-.72-1.66,7.43-7.95,11.99-18.62,11.99-30.34s-4.55-22.36-11.96-30.3l-.03-.04c-.59-.63-.14-1.66.72-1.67h.07c17.65,0,32.01,14.36,32.01,32.01s-14.36,32.01-32.01,32.01Z"/>
          <path class="cls-4" d="M156.58,860.82h-16.01c-.49,0-.9-.36-.98-.84-3.4-21.17-21.8-37.4-43.92-37.4-5.75,0-11.24,1.11-16.28,3.1-.23.09-.48.09-.71,0-5.05-1.99-10.54-3.1-16.28-3.1-22.12,0-40.51,16.23-43.91,37.4-.08.48-.49.84-.98.84H1.5c-2.4,0-4.34,1.94-4.34,4.34v3.81c0,2.4,1.94,4.34,4.34,4.34h16.01c.49,0,.9.36.98.84,3.4,21.17,21.79,37.4,43.91,37.4,5.75,0,11.24-1.11,16.28-3.1.23-.09.48-.09.71,0,5.05,1.99,10.54,3.1,16.28,3.1,22.12,0,40.51-16.23,43.92-37.4.08-.48.49-.84.98-.84h16.01c2.4,0,4.34-1.94,4.34-4.34v-3.81c0-2.4-1.94-4.34-4.34-4.34ZM63.68,867.07c0-4.34.87-8.48,2.45-12.26.35-.83,1.54-.82,1.85.02,2,5.32,5.14,10.27,7.8,14.45,7.14,11.21,10.15,17.32,6.09,23.1-.06.09-.14.17-.23.24-.29.22-.57.43-.87.63-1.04.73-2.44.73-3.47,0-8.23-5.8-13.63-15.37-13.63-26.19ZM93.99,872.18c-.15.95-1.44,1.14-1.87.28-1.8-3.59-3.93-6.94-5.81-9.9-6.53-10.24-9.54-16.03-7.07-21.2.3-.62,1.09-.79,1.65-.39,8.17,5.8,13.51,15.34,13.51,26.1,0,1.74-.14,3.45-.41,5.12ZM62.4,899.07c-17.65,0-32.01-14.36-32.01-32.01s14.36-32.01,32.01-32.01h.07c.87,0,1.31,1.03.72,1.66-7.43,7.95-11.99,18.62-11.99,30.34s4.56,22.39,11.99,30.34c.59.63.15,1.66-.72,1.66h-.07ZM95.68,899.07h-.07c-.87,0-1.31-1.03-.72-1.66,7.43-7.95,11.99-18.62,11.99-30.34s-4.55-22.36-11.96-30.3l-.03-.04c-.59-.63-.14-1.66.72-1.67h.07c17.65,0,32.01,14.36,32.01,32.01s-14.36,32.01-32.01,32.01Z"/>
          <path class="cls-4" d="M300.06,860.82h-16.01c-.49,0-.9-.36-.98-.84-3.4-21.17-21.8-37.4-43.92-37.4-5.75,0-11.24,1.11-16.28,3.1-.23.09-.48.09-.71,0-5.05-1.99-10.54-3.1-16.28-3.1-22.12,0-40.51,16.23-43.91,37.4-.08.48-.49.84-.98.84h-16.01c-2.4,0-4.34,1.94-4.34,4.34v3.81c0,2.4,1.94,4.34,4.34,4.34h16.01c.49,0,.9.36.98.84,3.4,21.17,21.79,37.4,43.91,37.4,5.75,0,11.24-1.11,16.28-3.1.23-.09.48-.09.71,0,5.05,1.99,10.54,3.1,16.28,3.1,22.12,0,40.51-16.23,43.92-37.4.08-.48.49-.84.98-.84h16.01c2.4,0,4.34-1.94,4.34-4.34v-3.81c0-2.4-1.94-4.34-4.34-4.34ZM207.15,867.07c0-4.34.87-8.48,2.45-12.26.35-.83,1.54-.82,1.85.02,2,5.32,5.14,10.27,7.8,14.45,7.14,11.21,10.15,17.32,6.09,23.1-.06.09-.14.17-.23.24-.29.22-.57.43-.87.63-1.04.73-2.44.73-3.47,0-8.23-5.8-13.63-15.37-13.63-26.19ZM237.47,872.18c-.15.95-1.44,1.14-1.87.28-1.8-3.59-3.93-6.94-5.81-9.9-6.53-10.24-9.54-16.03-7.07-21.2.3-.62,1.09-.79,1.65-.39,8.17,5.8,13.51,15.34,13.51,26.1,0,1.74-.14,3.45-.41,5.12ZM205.87,899.07c-17.65,0-32.01-14.36-32.01-32.01s14.36-32.01,32.01-32.01h.07c.87,0,1.31,1.03.72,1.66-7.43,7.95-11.99,18.62-11.99,30.34s4.56,22.39,11.99,30.34c.59.63.15,1.66-.72,1.66h-.07ZM239.16,899.07h-.07c-.87,0-1.31-1.03-.72-1.66,7.43-7.95,11.99-18.62,11.99-30.34s-4.55-22.36-11.96-30.3l-.03-.04c-.59-.63-.14-1.66.72-1.67h.07c17.65,0,32.01,14.36,32.01,32.01s-14.36,32.01-32.01,32.01Z"/>
          <path class="cls-4" d="M228.21,661.08h-16.01c-.49,0-.9-.36-.98-.84-3.4-21.17-21.8-37.4-43.92-37.4-5.75,0-11.24,1.11-16.28,3.1-.23.09-.48.09-.71,0-5.05-1.99-10.54-3.1-16.28-3.1-22.12,0-40.51,16.23-43.91,37.4-.08.48-.49.84-.98.84h-16.01c-2.4,0-4.34,1.94-4.34,4.34v3.81c0,2.4,1.94,4.34,4.34,4.34h16.01c.49,0,.9.36.98.84,3.4,21.17,21.79,37.4,43.91,37.4,5.75,0,11.24-1.11,16.28-3.1.23-.09.48-.09.71,0,5.05,1.99,10.54,3.1,16.28,3.1,22.12,0,40.51-16.23,43.92-37.4.08-.48.49-.84.98-.84h16.01c2.4,0,4.34-1.94,4.34-4.34v-3.81c0-2.4-1.94-4.34-4.34-4.34ZM135.3,667.32c0-4.34.87-8.48,2.45-12.26.35-.83,1.54-.82,1.85.02,2,5.32,5.14,10.27,7.8,14.45,7.14,11.21,10.15,17.32,6.09,23.1-.06.09-.14.17-.23.24-.29.22-.57.43-.87.63-1.04.73-2.44.73-3.47,0-8.23-5.8-13.63-15.37-13.63-26.19ZM165.62,672.43c-.15.95-1.44,1.14-1.87.28-1.8-3.59-3.93-6.94-5.81-9.9-6.53-10.24-9.54-16.03-7.07-21.2.3-.62,1.09-.79,1.65-.39,8.17,5.8,13.51,15.34,13.51,26.1,0,1.74-.14,3.45-.41,5.12ZM134.02,699.32c-17.65,0-32.01-14.36-32.01-32.01s14.36-32.01,32.01-32.01h.07c.87,0,1.31,1.03.72,1.66-7.43,7.95-11.99,18.62-11.99,30.34s4.56,22.39,11.99,30.34c.59.63.15,1.66-.72,1.66h-.07ZM167.31,699.32h-.07c-.87,0-1.31-1.03-.72-1.66,7.43-7.95,11.99-18.62,11.99-30.34s-4.55-22.36-11.96-30.3l-.03-.04c-.59-.63-.14-1.66.72-1.67h.07c17.65,0,32.01,14.36,32.01,32.01s-14.36,32.01-32.01,32.01Z"/>
          <path class="cls-4" d="M371.69,661.08h-16.01c-.49,0-.9-.36-.98-.84-3.4-21.17-21.8-37.4-43.92-37.4-5.75,0-11.24,1.11-16.28,3.1-.23.09-.48.09-.71,0-5.05-1.99-10.54-3.1-16.28-3.1-22.12,0-40.51,16.23-43.91,37.4-.08.48-.49.84-.98.84h-16.01c-2.4,0-4.34,1.94-4.34,4.34v3.81c0,2.4,1.94,4.34,4.34,4.34h16.01c.49,0,.9.36.98.84,3.4,21.17,21.79,37.4,43.91,37.4,5.75,0,11.24-1.11,16.28-3.1.23-.09.48-.09.71,0,5.05,1.99,10.54,3.1,16.28,3.1,22.12,0,40.51-16.23,43.92-37.4.08-.48.49-.84.98-.84h16.01c2.4,0,4.34-1.94,4.34-4.34v-3.81c0-2.4-1.94-4.34-4.34-4.34ZM278.78,667.32c0-4.34.87-8.48,2.45-12.26.35-.83,1.54-.82,1.85.02,2,5.32,5.14,10.27,7.8,14.45,7.14,11.21,10.15,17.32,6.09,23.1-.06.09-.14.17-.23.24-.29.22-.57.43-.87.63-1.04.73-2.44.73-3.47,0-8.23-5.8-13.63-15.37-13.63-26.19ZM309.1,672.43c-.15.95-1.44,1.14-1.87.28-1.8-3.59-3.93-6.94-5.81-9.9-6.53-10.24-9.54-16.03-7.07-21.2.3-.62,1.09-.79,1.65-.39,8.17,5.8,13.51,15.34,13.51,26.1,0,1.74-.14,3.45-.41,5.12ZM277.5,699.32c-17.65,0-32.01-14.36-32.01-32.01s14.36-32.01,32.01-32.01h.07c.87,0,1.31,1.03.72,1.66-7.43,7.95-11.99,18.62-11.99,30.34s4.56,22.39,11.99,30.34c.59.63.15,1.66-.72,1.66h-.07ZM310.78,699.32h-.07c-.87,0-1.31-1.03-.72-1.66,7.43-7.95,11.99-18.62,11.99-30.34s-4.55-22.36-11.96-30.3l-.03-.04c-.59-.63-.14-1.66.72-1.67h.07c17.65,0,32.01,14.36,32.01,32.01s-14.36,32.01-32.01,32.01Z"/>
          <path class="cls-4" d="M156.58,727.46h-16.01c-.49,0-.9-.36-.98-.84-3.4-21.17-21.8-37.4-43.92-37.4-5.75,0-11.24,1.11-16.28,3.1-.23.09-.48.09-.71,0-5.05-1.99-10.54-3.1-16.28-3.1-22.12,0-40.51,16.23-43.91,37.4-.08.48-.49.84-.98.84H1.5c-2.4,0-4.34,1.94-4.34,4.34v3.81c0,2.4,1.94,4.34,4.34,4.34h16.01c.49,0,.9.36.98.84,3.4,21.17,21.79,37.4,43.91,37.4,5.75,0,11.24-1.11,16.28-3.1.23-.09.48-.09.71,0,5.05,1.99,10.54,3.1,16.28,3.1,22.12,0,40.51-16.23,43.92-37.4.08-.48.49-.84.98-.84h16.01c2.4,0,4.34-1.94,4.34-4.34v-3.81c0-2.4-1.94-4.34-4.34-4.34ZM63.68,733.7c0-4.34.87-8.48,2.45-12.26.35-.83,1.54-.82,1.85.02,2,5.32,5.14,10.27,7.8,14.45,7.14,11.21,10.15,17.32,6.09,23.1-.06.09-.14.17-.23.24-.29.22-.57.43-.87.63-1.04.73-2.44.73-3.47,0-8.23-5.8-13.63-15.37-13.63-26.19ZM93.99,738.82c-.15.95-1.44,1.14-1.87.28-1.8-3.59-3.93-6.94-5.81-9.9-6.53-10.24-9.54-16.03-7.07-21.2.3-.62,1.09-.79,1.65-.39,8.17,5.8,13.51,15.34,13.51,26.1,0,1.74-.14,3.45-.41,5.12ZM62.4,765.71c-17.65,0-32.01-14.36-32.01-32.01s14.36-32.01,32.01-32.01h.07c.87,0,1.31,1.03.72,1.66-7.43,7.95-11.99,18.62-11.99,30.34s4.56,22.39,11.99,30.34c.59.63.15,1.66-.72,1.66h-.07ZM95.68,765.71h-.07c-.87,0-1.31-1.03-.72-1.66,7.43-7.95,11.99-18.62,11.99-30.34s-4.55-22.36-11.96-30.3l-.03-.04c-.59-.63-.14-1.66.72-1.67h.07c17.65,0,32.01,14.36,32.01,32.01s-14.36,32.01-32.01,32.01Z"/>
          <path class="cls-4" d="M300.06,727.46h-16.01c-.49,0-.9-.36-.98-.84-3.4-21.17-21.8-37.4-43.92-37.4-5.75,0-11.24,1.11-16.28,3.1-.23.09-.48.09-.71,0-5.05-1.99-10.54-3.1-16.28-3.1-22.12,0-40.51,16.23-43.91,37.4-.08.48-.49.84-.98.84h-16.01c-2.4,0-4.34,1.94-4.34,4.34v3.81c0,2.4,1.94,4.34,4.34,4.34h16.01c.49,0,.9.36.98.84,3.4,21.17,21.79,37.4,43.91,37.4,5.75,0,11.24-1.11,16.28-3.1.23-.09.48-.09.71,0,5.05,1.99,10.54,3.1,16.28,3.1,22.12,0,40.51-16.23,43.92-37.4.08-.48.49-.84.98-.84h16.01c2.4,0,4.34-1.94,4.34-4.34v-3.81c0-2.4-1.94-4.34-4.34-4.34ZM207.15,733.7c0-4.34.87-8.48,2.45-12.26.35-.83,1.54-.82,1.85.02,2,5.32,5.14,10.27,7.8,14.45,7.14,11.21,10.15,17.32,6.09,23.1-.06.09-.14.17-.23.24-.29.22-.57.43-.87.63-1.04.73-2.44.73-3.47,0-8.23-5.8-13.63-15.37-13.63-26.19ZM237.47,738.82c-.15.95-1.44,1.14-1.87.28-1.8-3.59-3.93-6.94-5.81-9.9-6.53-10.24-9.54-16.03-7.07-21.2.3-.62,1.09-.79,1.65-.39,8.17,5.8,13.51,15.34,13.51,26.1,0,1.74-.14,3.45-.41,5.12ZM205.87,765.71c-17.65,0-32.01-14.36-32.01-32.01s14.36-32.01,32.01-32.01h.07c.87,0,1.31,1.03.72,1.66-7.43,7.95-11.99,18.62-11.99,30.34s4.56,22.39,11.99,30.34c.59.63.15,1.66-.72,1.66h-.07ZM239.16,765.71h-.07c-.87,0-1.31-1.03-.72-1.66,7.43-7.95,11.99-18.62,11.99-30.34s-4.55-22.36-11.96-30.3l-.03-.04c-.59-.63-.14-1.66.72-1.67h.07c17.65,0,32.01,14.36,32.01,32.01s-14.36,32.01-32.01,32.01Z"/>
          <path class="cls-4" d="M228.21,527.71h-16.01c-.49,0-.9-.36-.98-.84-3.4-21.17-21.8-37.4-43.92-37.4-5.75,0-11.24,1.11-16.28,3.1-.23.09-.48.09-.71,0-5.05-1.99-10.54-3.1-16.28-3.1-22.12,0-40.51,16.23-43.91,37.4-.08.48-.49.84-.98.84h-16.01c-2.4,0-4.34,1.94-4.34,4.34v3.81c0,2.4,1.94,4.34,4.34,4.34h16.01c.49,0,.9.36.98.84,3.4,21.17,21.79,37.4,43.91,37.4,5.75,0,11.24-1.11,16.28-3.1.23-.09.48-.09.71,0,5.05,1.99,10.54,3.1,16.28,3.1,22.12,0,40.51-16.23,43.92-37.4.08-.48.49-.84.98-.84h16.01c2.4,0,4.34-1.94,4.34-4.34v-3.81c0-2.4-1.94-4.34-4.34-4.34ZM135.3,533.95c0-4.34.87-8.48,2.45-12.26.35-.83,1.54-.82,1.85.02,2,5.32,5.14,10.27,7.8,14.45,7.14,11.21,10.15,17.32,6.09,23.1-.06.09-.14.17-.23.24-.29.22-.57.43-.87.63-1.04.73-2.44.73-3.47,0-8.23-5.8-13.63-15.37-13.63-26.19ZM165.62,539.07c-.15.95-1.44,1.14-1.87.28-1.8-3.59-3.93-6.94-5.81-9.9-6.53-10.24-9.54-16.03-7.07-21.2.3-.62,1.09-.79,1.65-.39,8.17,5.8,13.51,15.34,13.51,26.1,0,1.74-.14,3.45-.41,5.12ZM134.02,565.96c-17.65,0-32.01-14.36-32.01-32.01s14.36-32.01,32.01-32.01h.07c.87,0,1.31,1.03.72,1.66-7.43,7.95-11.99,18.62-11.99,30.34s4.56,22.39,11.99,30.34c.59.63.15,1.66-.72,1.66h-.07ZM167.31,565.96h-.07c-.87,0-1.31-1.03-.72-1.66,7.43-7.95,11.99-18.62,11.99-30.34s-4.55-22.36-11.96-30.3l-.03-.04c-.59-.63-.14-1.66.72-1.67h.07c17.65,0,32.01,14.36,32.01,32.01s-14.36,32.01-32.01,32.01Z"/>
          <path class="cls-4" d="M371.69,527.71h-16.01c-.49,0-.9-.36-.98-.84-3.4-21.17-21.8-37.4-43.92-37.4-5.75,0-11.24,1.11-16.28,3.1-.23.09-.48.09-.71,0-5.05-1.99-10.54-3.1-16.28-3.1-22.12,0-40.51,16.23-43.91,37.4-.08.48-.49.84-.98.84h-16.01c-2.4,0-4.34,1.94-4.34,4.34v3.81c0,2.4,1.94,4.34,4.34,4.34h16.01c.49,0,.9.36.98.84,3.4,21.17,21.79,37.4,43.91,37.4,5.75,0,11.24-1.11,16.28-3.1.23-.09.48-.09.71,0,5.05,1.99,10.54,3.1,16.28,3.1,22.12,0,40.51-16.23,43.92-37.4.08-.48.49-.84.98-.84h16.01c2.4,0,4.34-1.94,4.34-4.34v-3.81c0-2.4-1.94-4.34-4.34-4.34ZM278.78,533.95c0-4.34.87-8.48,2.45-12.26.35-.83,1.54-.82,1.85.02,2,5.32,5.14,10.27,7.8,14.45,7.14,11.21,10.15,17.32,6.09,23.1-.06.09-.14.17-.23.24-.29.22-.57.43-.87.63-1.04.73-2.44.73-3.47,0-8.23-5.8-13.63-15.37-13.63-26.19ZM309.1,539.07c-.15.95-1.44,1.14-1.87.28-1.8-3.59-3.93-6.94-5.81-9.9-6.53-10.24-9.54-16.03-7.07-21.2.3-.62,1.09-.79,1.65-.39,8.17,5.8,13.51,15.34,13.51,26.1,0,1.74-.14,3.45-.41,5.12ZM277.5,565.96c-17.65,0-32.01-14.36-32.01-32.01s14.36-32.01,32.01-32.01h.07c.87,0,1.31,1.03.72,1.66-7.43,7.95-11.99,18.62-11.99,30.34s4.56,22.39,11.99,30.34c.59.63.15,1.66-.72,1.66h-.07ZM310.78,565.96h-.07c-.87,0-1.31-1.03-.72-1.66,7.43-7.95,11.99-18.62,11.99-30.34s-4.55-22.36-11.96-30.3l-.03-.04c-.59-.63-.14-1.66.72-1.67h.07c17.65,0,32.01,14.36,32.01,32.01s-14.36,32.01-32.01,32.01Z"/>
          <path class="cls-4" d="M156.58,594.09h-16.01c-.49,0-.9-.36-.98-.84-3.4-21.17-21.8-37.4-43.92-37.4-5.75,0-11.24,1.11-16.28,3.1-.23.09-.48.09-.71,0-5.05-1.99-10.54-3.1-16.28-3.1-22.12,0-40.51,16.23-43.91,37.4-.08.48-.49.84-.98.84H1.5c-2.4,0-4.34,1.94-4.34,4.34v3.81c0,2.4,1.94,4.34,4.34,4.34h16.01c.49,0,.9.36.98.84,3.4,21.17,21.79,37.4,43.91,37.4,5.75,0,11.24-1.11,16.28-3.1.23-.09.48-.09.71,0,5.05,1.99,10.54,3.1,16.28,3.1,22.12,0,40.51-16.23,43.92-37.4.08-.48.49-.84.98-.84h16.01c2.4,0,4.34-1.94,4.34-4.34v-3.81c0-2.4-1.94-4.34-4.34-4.34ZM63.68,600.33c0-4.34.87-8.48,2.45-12.26.35-.83,1.54-.82,1.85.02,2,5.32,5.14,10.27,7.8,14.45,7.14,11.21,10.15,17.32,6.09,23.1-.06.09-.14.17-.23.24-.29.22-.57.43-.87.63-1.04.73-2.44.73-3.47,0-8.23-5.8-13.63-15.37-13.63-26.19ZM93.99,605.45c-.15.95-1.44,1.14-1.87.28-1.8-3.59-3.93-6.94-5.81-9.9-6.53-10.24-9.54-16.03-7.07-21.2.3-.62,1.09-.79,1.65-.39,8.17,5.8,13.51,15.34,13.51,26.1,0,1.74-.14,3.45-.41,5.12ZM62.4,632.34c-17.65,0-32.01-14.36-32.01-32.01s14.36-32.01,32.01-32.01h.07c.87,0,1.31,1.03.72,1.66-7.43,7.95-11.99,18.62-11.99,30.34s4.56,22.39,11.99,30.34c.59.63.15,1.66-.72,1.66h-.07ZM95.68,632.34h-.07c-.87,0-1.31-1.03-.72-1.66,7.43-7.95,11.99-18.62,11.99-30.34s-4.55-22.36-11.96-30.3l-.03-.04c-.59-.63-.14-1.66.72-1.67h.07c17.65,0,32.01,14.36,32.01,32.01s-14.36,32.01-32.01,32.01Z"/>
          <path class="cls-4" d="M300.06,594.09h-16.01c-.49,0-.9-.36-.98-.84-3.4-21.17-21.8-37.4-43.92-37.4-5.75,0-11.24,1.11-16.28,3.1-.23.09-.48.09-.71,0-5.05-1.99-10.54-3.1-16.28-3.1-22.12,0-40.51,16.23-43.91,37.4-.08.48-.49.84-.98.84h-16.01c-2.4,0-4.34,1.94-4.34,4.34v3.81c0,2.4,1.94,4.34,4.34,4.34h16.01c.49,0,.9.36.98.84,3.4,21.17,21.79,37.4,43.91,37.4,5.75,0,11.24-1.11,16.28-3.1.23-.09.48-.09.71,0,5.05,1.99,10.54,3.1,16.28,3.1,22.12,0,40.51-16.23,43.92-37.4.08-.48.49-.84.98-.84h16.01c2.4,0,4.34-1.94,4.34-4.34v-3.81c0-2.4-1.94-4.34-4.34-4.34ZM207.15,600.33c0-4.34.87-8.48,2.45-12.26.35-.83,1.54-.82,1.85.02,2,5.32,5.14,10.27,7.8,14.45,7.14,11.21,10.15,17.32,6.09,23.1-.06.09-.14.17-.23.24-.29.22-.57.43-.87.63-1.04.73-2.44.73-3.47,0-8.23-5.8-13.63-15.37-13.63-26.19ZM237.47,605.45c-.15.95-1.44,1.14-1.87.28-1.8-3.59-3.93-6.94-5.81-9.9-6.53-10.24-9.54-16.03-7.07-21.2.3-.62,1.09-.79,1.65-.39,8.17,5.8,13.51,15.34,13.51,26.1,0,1.74-.14,3.45-.41,5.12ZM205.87,632.34c-17.65,0-32.01-14.36-32.01-32.01s14.36-32.01,32.01-32.01h.07c.87,0,1.31,1.03.72,1.66-7.43,7.95-11.99,18.62-11.99,30.34s4.56,22.39,11.99,30.34c.59.63.15,1.66-.72,1.66h-.07ZM239.16,632.34h-.07c-.87,0-1.31-1.03-.72-1.66,7.43-7.95,11.99-18.62,11.99-30.34s-4.55-22.36-11.96-30.3l-.03-.04c-.59-.63-.14-1.66.72-1.67h.07c17.65,0,32.01,14.36,32.01,32.01s-14.36,32.01-32.01,32.01Z"/>
          <path class="cls-4" d="M228.21,394.35h-16.01c-.49,0-.9-.36-.98-.84-3.4-21.17-21.8-37.4-43.92-37.4-5.75,0-11.24,1.11-16.28,3.1-.23.09-.48.09-.71,0-5.05-1.99-10.54-3.1-16.28-3.1-22.12,0-40.51,16.23-43.91,37.4-.08.48-.49.84-.98.84h-16.01c-2.4,0-4.34,1.94-4.34,4.34v3.81c0,2.4,1.94,4.34,4.34,4.34h16.01c.49,0,.9.36.98.84,3.4,21.17,21.79,37.4,43.91,37.4,5.75,0,11.24-1.11,16.28-3.1.23-.09.48-.09.71,0,5.05,1.99,10.54,3.1,16.28,3.1,22.12,0,40.51-16.23,43.92-37.4.08-.48.49-.84.98-.84h16.01c2.4,0,4.34-1.94,4.34-4.34v-3.81c0-2.4-1.94-4.34-4.34-4.34ZM135.3,400.59c0-4.34.87-8.48,2.45-12.26.35-.83,1.54-.82,1.85.02,2,5.32,5.14,10.27,7.8,14.45,7.14,11.21,10.15,17.32,6.09,23.1-.06.09-.14.17-.23.24-.29.22-.57.43-.87.63-1.04.73-2.44.73-3.47,0-8.23-5.8-13.63-15.37-13.63-26.19ZM165.62,405.7c-.15.95-1.44,1.14-1.87.28-1.8-3.59-3.93-6.94-5.81-9.9-6.53-10.24-9.54-16.03-7.07-21.2.3-.62,1.09-.79,1.65-.39,8.17,5.8,13.51,15.34,13.51,26.1,0,1.74-.14,3.45-.41,5.12ZM134.02,432.59c-17.65,0-32.01-14.36-32.01-32.01s14.36-32.01,32.01-32.01h.07c.87,0,1.31,1.03.72,1.66-7.43,7.95-11.99,18.62-11.99,30.34s4.56,22.39,11.99,30.34c.59.63.15,1.66-.72,1.66h-.07ZM167.31,432.59h-.07c-.87,0-1.31-1.03-.72-1.66,7.43-7.95,11.99-18.62,11.99-30.34s-4.55-22.36-11.96-30.3l-.03-.04c-.59-.63-.14-1.66.72-1.67h.07c17.65,0,32.01,14.36,32.01,32.01s-14.36,32.01-32.01,32.01Z"/>
          <path class="cls-4" d="M371.69,394.35h-16.01c-.49,0-.9-.36-.98-.84-3.4-21.17-21.8-37.4-43.92-37.4-5.75,0-11.24,1.11-16.28,3.1-.23.09-.48.09-.71,0-5.05-1.99-10.54-3.1-16.28-3.1-22.12,0-40.51,16.23-43.91,37.4-.08.48-.49.84-.98.84h-16.01c-2.4,0-4.34,1.94-4.34,4.34v3.81c0,2.4,1.94,4.34,4.34,4.34h16.01c.49,0,.9.36.98.84,3.4,21.17,21.79,37.4,43.91,37.4,5.75,0,11.24-1.11,16.28-3.1.23-.09.48-.09.71,0,5.05,1.99,10.54,3.1,16.28,3.1,22.12,0,40.51-16.23,43.92-37.4.08-.48.49-.84.98-.84h16.01c2.4,0,4.34-1.94,4.34-4.34v-3.81c0-2.4-1.94-4.34-4.34-4.34ZM278.78,400.59c0-4.34.87-8.48,2.45-12.26.35-.83,1.54-.82,1.85.02,2,5.32,5.14,10.27,7.8,14.45,7.14,11.21,10.15,17.32,6.09,23.1-.06.09-.14.17-.23.24-.29.22-.57.43-.87.63-1.04.73-2.44.73-3.47,0-8.23-5.8-13.63-15.37-13.63-26.19ZM309.1,405.7c-.15.95-1.44,1.14-1.87.28-1.8-3.59-3.93-6.94-5.81-9.9-6.53-10.24-9.54-16.03-7.07-21.2.3-.62,1.09-.79,1.65-.39,8.17,5.8,13.51,15.34,13.51,26.1,0,1.74-.14,3.45-.41,5.12ZM277.5,432.59c-17.65,0-32.01-14.36-32.01-32.01s14.36-32.01,32.01-32.01h.07c.87,0,1.31,1.03.72,1.66-7.43,7.95-11.99,18.62-11.99,30.34s4.56,22.39,11.99,30.34c.59.63.15,1.66-.72,1.66h-.07ZM310.78,432.59h-.07c-.87,0-1.31-1.03-.72-1.66,7.43-7.95,11.99-18.62,11.99-30.34s-4.55-22.36-11.96-30.3l-.03-.04c-.59-.63-.14-1.66.72-1.67h.07c17.65,0,32.01,14.36,32.01,32.01s-14.36,32.01-32.01,32.01Z"/>
          <path class="cls-4" d="M156.58,460.73h-16.01c-.49,0-.9-.36-.98-.84-3.4-21.17-21.8-37.4-43.92-37.4-5.75,0-11.24,1.11-16.28,3.1-.23.09-.48.09-.71,0-5.05-1.99-10.54-3.1-16.28-3.1-22.12,0-40.51,16.23-43.91,37.4-.08.48-.49.84-.98.84H1.5c-2.4,0-4.34,1.94-4.34,4.34v3.81c0,2.4,1.94,4.34,4.34,4.34h16.01c.49,0,.9.36.98.84,3.4,21.17,21.79,37.4,43.91,37.4,5.75,0,11.24-1.11,16.28-3.1.23-.09.48-.09.71,0,5.05,1.99,10.54,3.1,16.28,3.1,22.12,0,40.51-16.23,43.92-37.4.08-.48.49-.84.98-.84h16.01c2.4,0,4.34-1.94,4.34-4.34v-3.81c0-2.4-1.94-4.34-4.34-4.34ZM63.68,466.97c0-4.34.87-8.48,2.45-12.26.35-.83,1.54-.82,1.85.02,2,5.32,5.14,10.27,7.8,14.45,7.14,11.21,10.15,17.32,6.09,23.1-.06.09-.14.17-.23.24-.29.22-.57.43-.87.63-1.04.73-2.44.73-3.47,0-8.23-5.8-13.63-15.37-13.63-26.19ZM93.99,472.08c-.15.95-1.44,1.14-1.87.28-1.8-3.59-3.93-6.94-5.81-9.9-6.53-10.24-9.54-16.03-7.07-21.2.3-.62,1.09-.79,1.65-.39,8.17,5.8,13.51,15.34,13.51,26.1,0,1.74-.14,3.45-.41,5.12ZM62.4,498.97c-17.65,0-32.01-14.36-32.01-32.01s14.36-32.01,32.01-32.01h.07c.87,0,1.31,1.03.72,1.66-7.43,7.95-11.99,18.62-11.99,30.34s4.56,22.39,11.99,30.34c.59.63.15,1.66-.72,1.66h-.07ZM95.68,498.97h-.07c-.87,0-1.31-1.03-.72-1.66,7.43-7.95,11.99-18.62,11.99-30.34s-4.55-22.36-11.96-30.3l-.03-.04c-.59-.63-.14-1.66.72-1.67h.07c17.65,0,32.01,14.36,32.01,32.01s-14.36,32.01-32.01,32.01Z"/>
          <path class="cls-4" d="M300.06,460.73h-16.01c-.49,0-.9-.36-.98-.84-3.4-21.17-21.8-37.4-43.92-37.4-5.75,0-11.24,1.11-16.28,3.1-.23.09-.48.09-.71,0-5.05-1.99-10.54-3.1-16.28-3.1-22.12,0-40.51,16.23-43.91,37.4-.08.48-.49.84-.98.84h-16.01c-2.4,0-4.34,1.94-4.34,4.34v3.81c0,2.4,1.94,4.34,4.34,4.34h16.01c.49,0,.9.36.98.84,3.4,21.17,21.79,37.4,43.91,37.4,5.75,0,11.24-1.11,16.28-3.1.23-.09.48-.09.71,0,5.05,1.99,10.54,3.1,16.28,3.1,22.12,0,40.51-16.23,43.92-37.4.08-.48.49-.84.98-.84h16.01c2.4,0,4.34-1.94,4.34-4.34v-3.81c0-2.4-1.94-4.34-4.34-4.34ZM207.15,466.97c0-4.34.87-8.48,2.45-12.26.35-.83,1.54-.82,1.85.02,2,5.32,5.14,10.27,7.8,14.45,7.14,11.21,10.15,17.32,6.09,23.1-.06.09-.14.17-.23.24-.29.22-.57.43-.87.63-1.04.73-2.44.73-3.47,0-8.23-5.8-13.63-15.37-13.63-26.19ZM237.47,472.08c-.15.95-1.44,1.14-1.87.28-1.8-3.59-3.93-6.94-5.81-9.9-6.53-10.24-9.54-16.03-7.07-21.2.3-.62,1.09-.79,1.65-.39,8.17,5.8,13.51,15.34,13.51,26.1,0,1.74-.14,3.45-.41,5.12ZM205.87,498.97c-17.65,0-32.01-14.36-32.01-32.01s14.36-32.01,32.01-32.01h.07c.87,0,1.31,1.03.72,1.66-7.43,7.95-11.99,18.62-11.99,30.34s4.56,22.39,11.99,30.34c.59.63.15,1.66-.72,1.66h-.07ZM239.16,498.97h-.07c-.87,0-1.31-1.03-.72-1.66,7.43-7.95,11.99-18.62,11.99-30.34s-4.55-22.36-11.96-30.3l-.03-.04c-.59-.63-.14-1.66.72-1.67h.07c17.65,0,32.01,14.36,32.01,32.01s-14.36,32.01-32.01,32.01Z"/>
          <path class="cls-4" d="M228.21,260.98h-16.01c-.49,0-.9-.36-.98-.84-3.4-21.17-21.8-37.4-43.92-37.4-5.75,0-11.24,1.11-16.28,3.1-.23.09-.48.09-.71,0-5.05-1.99-10.54-3.1-16.28-3.1-22.12,0-40.51,16.23-43.91,37.4-.08.48-.49.84-.98.84h-16.01c-2.4,0-4.34,1.94-4.34,4.34v3.81c0,2.4,1.94,4.34,4.34,4.34h16.01c.49,0,.9.36.98.84,3.4,21.17,21.79,37.4,43.91,37.4,5.75,0,11.24-1.11,16.28-3.1.23-.09.48-.09.71,0,5.05,1.99,10.54,3.1,16.28,3.1,22.12,0,40.51-16.23,43.92-37.4.08-.48.49-.84.98-.84h16.01c2.4,0,4.34-1.94,4.34-4.34v-3.81c0-2.4-1.94-4.34-4.34-4.34ZM135.3,267.22c0-4.34.87-8.48,2.45-12.26.35-.83,1.54-.82,1.85.02,2,5.32,5.14,10.27,7.8,14.45,7.14,11.21,10.15,17.32,6.09,23.1-.06.09-.14.17-.23.24-.29.22-.57.43-.87.63-1.04.73-2.44.73-3.47,0-8.23-5.8-13.63-15.37-13.63-26.19ZM165.62,272.34c-.15.95-1.44,1.14-1.87.28-1.8-3.59-3.93-6.94-5.81-9.9-6.53-10.24-9.54-16.03-7.07-21.2.3-.62,1.09-.79,1.65-.39,8.17,5.8,13.51,15.34,13.51,26.1,0,1.74-.14,3.45-.41,5.12ZM134.02,299.23c-17.65,0-32.01-14.36-32.01-32.01s14.36-32.01,32.01-32.01h.07c.87,0,1.31,1.03.72,1.66-7.43,7.95-11.99,18.62-11.99,30.34s4.56,22.39,11.99,30.34c.59.63.15,1.66-.72,1.66h-.07ZM167.31,299.23h-.07c-.87,0-1.31-1.03-.72-1.66,7.43-7.95,11.99-18.62,11.99-30.34s-4.55-22.36-11.96-30.3l-.03-.04c-.59-.63-.14-1.66.72-1.67h.07c17.65,0,32.01,14.36,32.01,32.01s-14.36,32.01-32.01,32.01Z"/>
          <path class="cls-4" d="M371.69,260.98h-16.01c-.49,0-.9-.36-.98-.84-3.4-21.17-21.8-37.4-43.92-37.4-5.75,0-11.24,1.11-16.28,3.1-.23.09-.48.09-.71,0-5.05-1.99-10.54-3.1-16.28-3.1-22.12,0-40.51,16.23-43.91,37.4-.08.48-.49.84-.98.84h-16.01c-2.4,0-4.34,1.94-4.34,4.34v3.81c0,2.4,1.94,4.34,4.34,4.34h16.01c.49,0,.9.36.98.84,3.4,21.17,21.79,37.4,43.91,37.4,5.75,0,11.24-1.11,16.28-3.1.23-.09.48-.09.71,0,5.05,1.99,10.54,3.1,16.28,3.1,22.12,0,40.51-16.23,43.92-37.4.08-.48.49-.84.98-.84h16.01c2.4,0,4.34-1.94,4.34-4.34v-3.81c0-2.4-1.94-4.34-4.34-4.34ZM278.78,267.22c0-4.34.87-8.48,2.45-12.26.35-.83,1.54-.82,1.85.02,2,5.32,5.14,10.27,7.8,14.45,7.14,11.21,10.15,17.32,6.09,23.1-.06.09-.14.17-.23.24-.29.22-.57.43-.87.63-1.04.73-2.44.73-3.47,0-8.23-5.8-13.63-15.37-13.63-26.19ZM309.1,272.34c-.15.95-1.44,1.14-1.87.28-1.8-3.59-3.93-6.94-5.81-9.9-6.53-10.24-9.54-16.03-7.07-21.2.3-.62,1.09-.79,1.65-.39,8.17,5.8,13.51,15.34,13.51,26.1,0,1.74-.14,3.45-.41,5.12ZM277.5,299.23c-17.65,0-32.01-14.36-32.01-32.01s14.36-32.01,32.01-32.01h.07c.87,0,1.31,1.03.72,1.66-7.43,7.95-11.99,18.62-11.99,30.34s4.56,22.39,11.99,30.34c.59.63.15,1.66-.72,1.66h-.07ZM310.78,299.23h-.07c-.87,0-1.31-1.03-.72-1.66,7.43-7.95,11.99-18.62,11.99-30.34s-4.55-22.36-11.96-30.3l-.03-.04c-.59-.63-.14-1.66.72-1.67h.07c17.65,0,32.01,14.36,32.01,32.01s-14.36,32.01-32.01,32.01Z"/>
          <path class="cls-4" d="M156.58,327.36h-16.01c-.49,0-.9-.36-.98-.84-3.4-21.17-21.8-37.4-43.92-37.4-5.75,0-11.24,1.11-16.28,3.1-.23.09-.48.09-.71,0-5.05-1.99-10.54-3.1-16.28-3.1-22.12,0-40.51,16.23-43.91,37.4-.08.48-.49.84-.98.84H1.5c-2.4,0-4.34,1.94-4.34,4.34v3.81c0,2.4,1.94,4.34,4.34,4.34h16.01c.49,0,.9.36.98.84,3.4,21.17,21.79,37.4,43.91,37.4,5.75,0,11.24-1.11,16.28-3.1.23-.09.48-.09.71,0,5.05,1.99,10.54,3.1,16.28,3.1,22.12,0,40.51-16.23,43.92-37.4.08-.48.49-.84.98-.84h16.01c2.4,0,4.34-1.94,4.34-4.34v-3.81c0-2.4-1.94-4.34-4.34-4.34ZM63.68,333.6c0-4.34.87-8.48,2.45-12.26.35-.83,1.54-.82,1.85.02,2,5.32,5.14,10.27,7.8,14.45,7.14,11.21,10.15,17.32,6.09,23.1-.06.09-.14.17-.23.24-.29.22-.57.43-.87.63-1.04.73-2.44.73-3.47,0-8.23-5.8-13.63-15.37-13.63-26.19ZM93.99,338.72c-.15.95-1.44,1.14-1.87.28-1.8-3.59-3.93-6.94-5.81-9.9-6.53-10.24-9.54-16.03-7.07-21.2.3-.62,1.09-.79,1.65-.39,8.17,5.8,13.51,15.34,13.51,26.1,0,1.74-.14,3.45-.41,5.12ZM62.4,365.61c-17.65,0-32.01-14.36-32.01-32.01s14.36-32.01,32.01-32.01h.07c.87,0,1.31,1.03.72,1.66-7.43,7.95-11.99,18.62-11.99,30.34s4.56,22.39,11.99,30.34c.59.63.15,1.66-.72,1.66h-.07ZM95.68,365.61h-.07c-.87,0-1.31-1.03-.72-1.66,7.43-7.95,11.99-18.62,11.99-30.34s-4.55-22.36-11.96-30.3l-.03-.04c-.59-.63-.14-1.66.72-1.67h.07c17.65,0,32.01,14.36,32.01,32.01s-14.36,32.01-32.01,32.01Z"/>
          <path class="cls-4" d="M300.06,327.36h-16.01c-.49,0-.9-.36-.98-.84-3.4-21.17-21.8-37.4-43.92-37.4-5.75,0-11.24,1.11-16.28,3.1-.23.09-.48.09-.71,0-5.05-1.99-10.54-3.1-16.28-3.1-22.12,0-40.51,16.23-43.91,37.4-.08.48-.49.84-.98.84h-16.01c-2.4,0-4.34,1.94-4.34,4.34v3.81c0,2.4,1.94,4.34,4.34,4.34h16.01c.49,0,.9.36.98.84,3.4,21.17,21.79,37.4,43.91,37.4,5.75,0,11.24-1.11,16.28-3.1.23-.09.48-.09.71,0,5.05,1.99,10.54,3.1,16.28,3.1,22.12,0,40.51-16.23,43.92-37.4.08-.48.49-.84.98-.84h16.01c2.4,0,4.34-1.94,4.34-4.34v-3.81c0-2.4-1.94-4.34-4.34-4.34ZM207.15,333.6c0-4.34.87-8.48,2.45-12.26.35-.83,1.54-.82,1.85.02,2,5.32,5.14,10.27,7.8,14.45,7.14,11.21,10.15,17.32,6.09,23.1-.06.09-.14.17-.23.24-.29.22-.57.43-.87.63-1.04.73-2.44.73-3.47,0-8.23-5.8-13.63-15.37-13.63-26.19ZM237.47,338.72c-.15.95-1.44,1.14-1.87.28-1.8-3.59-3.93-6.94-5.81-9.9-6.53-10.24-9.54-16.03-7.07-21.2.3-.62,1.09-.79,1.65-.39,8.17,5.8,13.51,15.34,13.51,26.1,0,1.74-.14,3.45-.41,5.12ZM205.87,365.61c-17.65,0-32.01-14.36-32.01-32.01s14.36-32.01,32.01-32.01h.07c.87,0,1.31,1.03.72,1.66-7.43,7.95-11.99,18.62-11.99,30.34s4.56,22.39,11.99,30.34c.59.63.15,1.66-.72,1.66h-.07ZM239.16,365.61h-.07c-.87,0-1.31-1.03-.72-1.66,7.43-7.95,11.99-18.62,11.99-30.34s-4.55-22.36-11.96-30.3l-.03-.04c-.59-.63-.14-1.66.72-1.67h.07c17.65,0,32.01,14.36,32.01,32.01s-14.36,32.01-32.01,32.01Z"/>
          <path class="cls-4" d="M228.21,127.61h-16.01c-.49,0-.9-.36-.98-.84-3.4-21.17-21.8-37.4-43.92-37.4-5.75,0-11.24,1.11-16.28,3.1-.23.09-.48.09-.71,0-5.05-1.99-10.54-3.1-16.28-3.1-22.12,0-40.51,16.23-43.91,37.4-.08.48-.49.84-.98.84h-16.01c-2.4,0-4.34,1.94-4.34,4.34v3.81c0,2.4,1.94,4.34,4.34,4.34h16.01c.49,0,.9.36.98.84,3.4,21.17,21.79,37.4,43.91,37.4,5.75,0,11.24-1.11,16.28-3.1.23-.09.48-.09.71,0,5.05,1.99,10.54,3.1,16.28,3.1,22.12,0,40.51-16.23,43.92-37.4.08-.48.49-.84.98-.84h16.01c2.4,0,4.34-1.94,4.34-4.34v-3.81c0-2.4-1.94-4.34-4.34-4.34ZM135.3,133.86c0-4.34.87-8.48,2.45-12.26.35-.83,1.54-.82,1.85.02,2,5.32,5.14,10.27,7.8,14.45,7.14,11.21,10.15,17.32,6.09,23.1-.06.09-.14.17-.23.24-.29.22-.57.43-.87.63-1.04.73-2.44.73-3.47,0-8.23-5.8-13.63-15.37-13.63-26.19ZM165.62,138.97c-.15.95-1.44,1.14-1.87.28-1.8-3.59-3.93-6.94-5.81-9.9-6.53-10.24-9.54-16.03-7.07-21.2.3-.62,1.09-.79,1.65-.39,8.17,5.8,13.51,15.34,13.51,26.1,0,1.74-.14,3.45-.41,5.12ZM134.02,165.86c-17.65,0-32.01-14.36-32.01-32.01s14.36-32.01,32.01-32.01h.07c.87,0,1.31,1.03.72,1.66-7.43,7.95-11.99,18.62-11.99,30.34s4.56,22.39,11.99,30.34c.59.63.15,1.66-.72,1.66h-.07ZM167.31,165.86h-.07c-.87,0-1.31-1.03-.72-1.66,7.43-7.95,11.99-18.62,11.99-30.34s-4.55-22.36-11.96-30.3l-.03-.04c-.59-.63-.14-1.66.72-1.67h.07c17.65,0,32.01,14.36,32.01,32.01s-14.36,32.01-32.01,32.01Z"/>
          <path class="cls-4" d="M371.69,127.61h-16.01c-.49,0-.9-.36-.98-.84-3.4-21.17-21.8-37.4-43.92-37.4-5.75,0-11.24,1.11-16.28,3.1-.23.09-.48.09-.71,0-5.05-1.99-10.54-3.1-16.28-3.1-22.12,0-40.51,16.23-43.91,37.4-.08.48-.49.84-.98.84h-16.01c-2.4,0-4.34,1.94-4.34,4.34v3.81c0,2.4,1.94,4.34,4.34,4.34h16.01c.49,0,.9.36.98.84,3.4,21.17,21.79,37.4,43.91,37.4,5.75,0,11.24-1.11,16.28-3.1.23-.09.48-.09.71,0,5.05,1.99,10.54,3.1,16.28,3.1,22.12,0,40.51-16.23,43.92-37.4.08-.48.49-.84.98-.84h16.01c2.4,0,4.34-1.94,4.34-4.34v-3.81c0-2.4-1.94-4.34-4.34-4.34ZM278.78,133.86c0-4.34.87-8.48,2.45-12.26.35-.83,1.54-.82,1.85.02,2,5.32,5.14,10.27,7.8,14.45,7.14,11.21,10.15,17.32,6.09,23.1-.06.09-.14.17-.23.24-.29.22-.57.43-.87.63-1.04.73-2.44.73-3.47,0-8.23-5.8-13.63-15.37-13.63-26.19ZM309.1,138.97c-.15.95-1.44,1.14-1.87.28-1.8-3.59-3.93-6.94-5.81-9.9-6.53-10.24-9.54-16.03-7.07-21.2.3-.62,1.09-.79,1.65-.39,8.17,5.8,13.51,15.34,13.51,26.1,0,1.74-.14,3.45-.41,5.12ZM277.5,165.86c-17.65,0-32.01-14.36-32.01-32.01s14.36-32.01,32.01-32.01h.07c.87,0,1.31,1.03.72,1.66-7.43,7.95-11.99,18.62-11.99,30.34s4.56,22.39,11.99,30.34c.59.63.15,1.66-.72,1.66h-.07ZM310.78,165.86h-.07c-.87,0-1.31-1.03-.72-1.66,7.43-7.95,11.99-18.62,11.99-30.34s-4.55-22.36-11.96-30.3l-.03-.04c-.59-.63-.14-1.66.72-1.67h.07c17.65,0,32.01,14.36,32.01,32.01s-14.36,32.01-32.01,32.01Z"/>
          <path class="cls-4" d="M156.58,194h-16.01c-.49,0-.9-.36-.98-.84-3.4-21.17-21.8-37.4-43.92-37.4-5.75,0-11.24,1.11-16.28,3.1-.23.09-.48.09-.71,0-5.05-1.99-10.54-3.1-16.28-3.1-22.12,0-40.51,16.23-43.91,37.4-.08.48-.49.84-.98.84H1.5c-2.4,0-4.34,1.94-4.34,4.34v3.81c0,2.4,1.94,4.34,4.34,4.34h16.01c.49,0,.9.36.98.84,3.4,21.17,21.79,37.4,43.91,37.4,5.75,0,11.24-1.11,16.28-3.1.23-.09.48-.09.71,0,5.05,1.99,10.54,3.1,16.28,3.1,22.12,0,40.51-16.23,43.92-37.4.08-.48.49-.84.98-.84h16.01c2.4,0,4.34-1.94,4.34-4.34v-3.81c0-2.4-1.94-4.34-4.34-4.34ZM63.68,200.24c0-4.34.87-8.48,2.45-12.26.35-.83,1.54-.82,1.85.02,2,5.32,5.14,10.27,7.8,14.45,7.14,11.21,10.15,17.32,6.09,23.1-.06.09-.14.17-.23.24-.29.22-.57.43-.87.63-1.04.73-2.44.73-3.47,0-8.23-5.8-13.63-15.37-13.63-26.19ZM93.99,205.35c-.15.95-1.44,1.14-1.87.28-1.8-3.59-3.93-6.94-5.81-9.9-6.53-10.24-9.54-16.03-7.07-21.2.3-.62,1.09-.79,1.65-.39,8.17,5.8,13.51,15.34,13.51,26.1,0,1.74-.14,3.45-.41,5.12ZM62.4,232.24c-17.65,0-32.01-14.36-32.01-32.01s14.36-32.01,32.01-32.01h.07c.87,0,1.31,1.03.72,1.66-7.43,7.95-11.99,18.62-11.99,30.34s4.56,22.39,11.99,30.34c.59.63.15,1.66-.72,1.66h-.07ZM95.68,232.24h-.07c-.87,0-1.31-1.03-.72-1.66,7.43-7.95,11.99-18.62,11.99-30.34s-4.55-22.36-11.96-30.3l-.03-.04c-.59-.63-.14-1.66.72-1.67h.07c17.65,0,32.01,14.36,32.01,32.01s-14.36,32.01-32.01,32.01Z"/>
          <path class="cls-4" d="M300.06,194h-16.01c-.49,0-.9-.36-.98-.84-3.4-21.17-21.8-37.4-43.92-37.4-5.75,0-11.24,1.11-16.28,3.1-.23.09-.48.09-.71,0-5.05-1.99-10.54-3.1-16.28-3.1-22.12,0-40.51,16.23-43.91,37.4-.08.48-.49.84-.98.84h-16.01c-2.4,0-4.34,1.94-4.34,4.34v3.81c0,2.4,1.94,4.34,4.34,4.34h16.01c.49,0,.9.36.98.84,3.4,21.17,21.79,37.4,43.91,37.4,5.75,0,11.24-1.11,16.28-3.1.23-.09.48-.09.71,0,5.05,1.99,10.54,3.1,16.28,3.1,22.12,0,40.51-16.23,43.92-37.4.08-.48.49-.84.98-.84h16.01c2.4,0,4.34-1.94,4.34-4.34v-3.81c0-2.4-1.94-4.34-4.34-4.34ZM207.15,200.24c0-4.34.87-8.48,2.45-12.26.35-.83,1.54-.82,1.85.02,2,5.32,5.14,10.27,7.8,14.45,7.14,11.21,10.15,17.32,6.09,23.1-.06.09-.14.17-.23.24-.29.22-.57.43-.87.63-1.04.73-2.44.73-3.47,0-8.23-5.8-13.63-15.37-13.63-26.19ZM237.47,205.35c-.15.95-1.44,1.14-1.87.28-1.8-3.59-3.93-6.94-5.81-9.9-6.53-10.24-9.54-16.03-7.07-21.2.3-.62,1.09-.79,1.65-.39,8.17,5.8,13.51,15.34,13.51,26.1,0,1.74-.14,3.45-.41,5.12ZM205.87,232.24c-17.65,0-32.01-14.36-32.01-32.01s14.36-32.01,32.01-32.01h.07c.87,0,1.31,1.03.72,1.66-7.43,7.95-11.99,18.62-11.99,30.34s4.56,22.39,11.99,30.34c.59.63.15,1.66-.72,1.66h-.07ZM239.16,232.24h-.07c-.87,0-1.31-1.03-.72-1.66,7.43-7.95,11.99-18.62,11.99-30.34s-4.55-22.36-11.96-30.3l-.03-.04c-.59-.63-.14-1.66.72-1.67h.07c17.65,0,32.01,14.36,32.01,32.01s-14.36,32.01-32.01,32.01Z"/>
          <path class="cls-4" d="M228.21-5.75h-16.01c-.49,0-.9-.36-.98-.84-3.4-21.17-21.8-37.4-43.92-37.4-5.75,0-11.24,1.11-16.28,3.1-.23.09-.48.09-.71,0-5.05-1.99-10.54-3.1-16.28-3.1-22.12,0-40.51,16.23-43.91,37.4-.08.48-.49.84-.98.84h-16.01c-2.4,0-4.34,1.94-4.34,4.34v3.81c0,2.4,1.94,4.34,4.34,4.34h16.01c.49,0,.9.36.98.84,3.4,21.17,21.79,37.4,43.91,37.4,5.75,0,11.24-1.11,16.28-3.1.23-.09.48-.09.71,0,5.05,1.99,10.54,3.1,16.28,3.1,22.12,0,40.51-16.23,43.92-37.4.08-.48.49-.84.98-.84h16.01c2.4,0,4.34-1.94,4.34-4.34V-1.41c0-2.4-1.94-4.34-4.34-4.34ZM135.3.49c0-4.34.87-8.48,2.45-12.26.35-.83,1.54-.82,1.85.02,2,5.32,5.14,10.27,7.8,14.45,7.14,11.21,10.15,17.32,6.09,23.1-.06.09-.14.17-.23.24-.29.22-.57.43-.87.63-1.04.73-2.44.73-3.47,0-8.23-5.8-13.63-15.37-13.63-26.19ZM165.62,5.61c-.15.95-1.44,1.14-1.87.28-1.8-3.59-3.93-6.94-5.81-9.9-6.53-10.24-9.54-16.03-7.07-21.2.3-.62,1.09-.79,1.65-.39,8.17,5.8,13.51,15.34,13.51,26.1,0,1.74-.14,3.45-.41,5.12ZM134.02,32.5c-17.65,0-32.01-14.36-32.01-32.01s14.36-32.01,32.01-32.01h.07c.87,0,1.31,1.03.72,1.66-7.43,7.95-11.99,18.62-11.99,30.34s4.56,22.39,11.99,30.34c.59.63.15,1.66-.72,1.66h-.07ZM167.31,32.5h-.07c-.87,0-1.31-1.03-.72-1.66,7.43-7.95,11.99-18.62,11.99-30.34s-4.55-22.36-11.96-30.3l-.03-.04c-.59-.63-.14-1.66.72-1.67h.07c17.65,0,32.01,14.36,32.01,32.01s-14.36,32.01-32.01,32.01Z"/>
          <path class="cls-4" d="M371.69-5.75h-16.01c-.49,0-.9-.36-.98-.84-3.4-21.17-21.8-37.4-43.92-37.4-5.75,0-11.24,1.11-16.28,3.1-.23.09-.48.09-.71,0-5.05-1.99-10.54-3.1-16.28-3.1-22.12,0-40.51,16.23-43.91,37.4-.08.48-.49.84-.98.84h-16.01c-2.4,0-4.34,1.94-4.34,4.34v3.81c0,2.4,1.94,4.34,4.34,4.34h16.01c.49,0,.9.36.98.84,3.4,21.17,21.79,37.4,43.91,37.4,5.75,0,11.24-1.11,16.28-3.1.23-.09.48-.09.71,0,5.05,1.99,10.54,3.1,16.28,3.1,22.12,0,40.51-16.23,43.92-37.4.08-.48.49-.84.98-.84h16.01c2.4,0,4.34-1.94,4.34-4.34V-1.41c0-2.4-1.94-4.34-4.34-4.34ZM278.78.49c0-4.34.87-8.48,2.45-12.26.35-.83,1.54-.82,1.85.02,2,5.32,5.14,10.27,7.8,14.45,7.14,11.21,10.15,17.32,6.09,23.1-.06.09-.14.17-.23.24-.29.22-.57.43-.87.63-1.04.73-2.44.73-3.47,0-8.23-5.8-13.63-15.37-13.63-26.19ZM309.1,5.61c-.15.95-1.44,1.14-1.87.28-1.8-3.59-3.93-6.94-5.81-9.9-6.53-10.24-9.54-16.03-7.07-21.2.3-.62,1.09-.79,1.65-.39,8.17,5.8,13.51,15.34,13.51,26.1,0,1.74-.14,3.45-.41,5.12ZM277.5,32.5c-17.65,0-32.01-14.36-32.01-32.01s14.36-32.01,32.01-32.01h.07c.87,0,1.31,1.03.72,1.66-7.43,7.95-11.99,18.62-11.99,30.34s4.56,22.39,11.99,30.34c.59.63.15,1.66-.72,1.66h-.07ZM310.78,32.5h-.07c-.87,0-1.31-1.03-.72-1.66,7.43-7.95,11.99-18.62,11.99-30.34s-4.55-22.36-11.96-30.3l-.03-.04c-.59-.63-.14-1.66.72-1.67h.07c17.65,0,32.01,14.36,32.01,32.01s-14.36,32.01-32.01,32.01Z"/>
          <path class="cls-4" d="M156.58,60.63h-16.01c-.49,0-.9-.36-.98-.84-3.4-21.17-21.8-37.4-43.92-37.4-5.75,0-11.24,1.11-16.28,3.1-.23.09-.48.09-.71,0-5.05-1.99-10.54-3.1-16.28-3.1-22.12,0-40.51,16.23-43.91,37.4-.08.48-.49.84-.98.84H1.5c-2.4,0-4.34,1.94-4.34,4.34v3.81c0,2.4,1.94,4.34,4.34,4.34h16.01c.49,0,.9.36.98.84,3.4,21.17,21.79,37.4,43.91,37.4,5.75,0,11.24-1.11,16.28-3.1.23-.09.48-.09.71,0,5.05,1.99,10.54,3.1,16.28,3.1,22.12,0,40.51-16.23,43.92-37.4.08-.48.49-.84.98-.84h16.01c2.4,0,4.34-1.94,4.34-4.34v-3.81c0-2.4-1.94-4.34-4.34-4.34ZM63.68,66.87c0-4.34.87-8.48,2.45-12.26.35-.83,1.54-.82,1.85.02,2,5.32,5.14,10.27,7.8,14.45,7.14,11.21,10.15,17.32,6.09,23.1-.06.09-.14.17-.23.24-.29.22-.57.43-.87.63-1.04.73-2.44.73-3.47,0-8.23-5.8-13.63-15.37-13.63-26.19ZM93.99,71.99c-.15.95-1.44,1.14-1.87.28-1.8-3.59-3.93-6.94-5.81-9.9-6.53-10.24-9.54-16.03-7.07-21.2.3-.62,1.09-.79,1.65-.39,8.17,5.8,13.51,15.34,13.51,26.1,0,1.74-.14,3.45-.41,5.12ZM62.4,98.88c-17.65,0-32.01-14.36-32.01-32.01s14.36-32.01,32.01-32.01h.07c.87,0,1.31,1.03.72,1.66-7.43,7.95-11.99,18.62-11.99,30.34s4.56,22.39,11.99,30.34c.59.63.15,1.66-.72,1.66h-.07ZM95.68,98.88h-.07c-.87,0-1.31-1.03-.72-1.66,7.43-7.95,11.99-18.62,11.99-30.34s-4.55-22.36-11.96-30.3l-.03-.04c-.59-.63-.14-1.66.72-1.67h.07c17.65,0,32.01,14.36,32.01,32.01s-14.36,32.01-32.01,32.01Z"/>
          <path class="cls-4" d="M300.06,60.63h-16.01c-.49,0-.9-.36-.98-.84-3.4-21.17-21.8-37.4-43.92-37.4-5.75,0-11.24,1.11-16.28,3.1-.23.09-.48.09-.71,0-5.05-1.99-10.54-3.1-16.28-3.1-22.12,0-40.51,16.23-43.91,37.4-.08.48-.49.84-.98.84h-16.01c-2.4,0-4.34,1.94-4.34,4.34v3.81c0,2.4,1.94,4.34,4.34,4.34h16.01c.49,0,.9.36.98.84,3.4,21.17,21.79,37.4,43.91,37.4,5.75,0,11.24-1.11,16.28-3.1.23-.09.48-.09.71,0,5.05,1.99,10.54,3.1,16.28,3.1,22.12,0,40.51-16.23,43.92-37.4.08-.48.49-.84.98-.84h16.01c2.4,0,4.34-1.94,4.34-4.34v-3.81c0-2.4-1.94-4.34-4.34-4.34ZM207.15,66.87c0-4.34.87-8.48,2.45-12.26.35-.83,1.54-.82,1.85.02,2,5.32,5.14,10.27,7.8,14.45,7.14,11.21,10.15,17.32,6.09,23.1-.06.09-.14.17-.23.24-.29.22-.57.43-.87.63-1.04.73-2.44.73-3.47,0-8.23-5.8-13.63-15.37-13.63-26.19ZM237.47,71.99c-.15.95-1.44,1.14-1.87.28-1.8-3.59-3.93-6.94-5.81-9.9-6.53-10.24-9.54-16.03-7.07-21.2.3-.62,1.09-.79,1.65-.39,8.17,5.8,13.51,15.34,13.51,26.1,0,1.74-.14,3.45-.41,5.12ZM205.87,98.88c-17.65,0-32.01-14.36-32.01-32.01s14.36-32.01,32.01-32.01h.07c.87,0,1.31,1.03.72,1.66-7.43,7.95-11.99,18.62-11.99,30.34s4.56,22.39,11.99,30.34c.59.63.15,1.66-.72,1.66h-.07ZM239.16,98.88h-.07c-.87,0-1.31-1.03-.72-1.66,7.43-7.95,11.99-18.62,11.99-30.34s-4.55-22.36-11.96-30.3l-.03-.04c-.59-.63-.14-1.66.72-1.67h.07c17.65,0,32.01,14.36,32.01,32.01s-14.36,32.01-32.01,32.01Z"/>
          <path class="cls-4" d="M228.32,937.32h-16.01c-.49,0-.9-.36-.98-.84-3.4-21.17-21.8-37.4-43.92-37.4-5.75,0-11.24,1.11-16.28,3.1-.23.09-.48.09-.71,0-5.05-1.99-10.54-3.1-16.28-3.1-22.12,0-40.51,16.23-43.91,37.4-.08.48-.49.84-.98.84h-16.01c-2.4,0-4.34,1.94-4.34,4.34v3.81c0,2.4,1.94,4.34,4.34,4.34h16.01c.49,0,.9.36.98.84,3.4,21.17,21.79,37.4,43.91,37.4,5.75,0,11.24-1.11,16.28-3.1.23-.09.48-.09.71,0,5.05,1.99,10.54,3.1,16.28,3.1,22.12,0,40.51-16.23,43.92-37.4.08-.48.49-.84.98-.84h16.01c2.4,0,4.34-1.94,4.34-4.34v-3.81c0-2.4-1.94-4.34-4.34-4.34ZM135.41,943.56c0-4.34.87-8.48,2.45-12.26.35-.83,1.54-.82,1.85.02,2,5.32,5.14,10.27,7.8,14.45,7.14,11.21,10.15,17.32,6.09,23.1-.06.09-.14.17-.23.24-.29.22-.57.43-.87.63-1.04.73-2.44.73-3.47,0-8.23-5.8-13.63-15.37-13.63-26.19ZM165.73,948.68c-.15.95-1.44,1.14-1.87.28-1.8-3.59-3.93-6.94-5.81-9.9-6.53-10.24-9.54-16.03-7.07-21.2.3-.62,1.09-.79,1.65-.39,8.17,5.8,13.51,15.34,13.51,26.1,0,1.74-.14,3.45-.41,5.12ZM134.14,975.56c-17.65,0-32.01-14.36-32.01-32.01s14.36-32.01,32.01-32.01h.07c.87,0,1.31,1.03.72,1.66-7.43,7.95-11.99,18.62-11.99,30.34s4.56,22.39,11.99,30.34c.59.63.15,1.66-.72,1.66h-.07ZM167.42,975.56h-.07c-.87,0-1.31-1.03-.72-1.66,7.43-7.95,11.99-18.62,11.99-30.34s-4.55-22.36-11.96-30.3l-.03-.04c-.59-.63-.14-1.66.72-1.67h.07c17.65,0,32.01,14.36,32.01,32.01s-14.36,32.01-32.01,32.01Z"/>
          <path class="cls-4" d="M371.8,937.32h-16.01c-.49,0-.9-.36-.98-.84-3.4-21.17-21.8-37.4-43.92-37.4-5.75,0-11.24,1.11-16.28,3.1-.23.09-.48.09-.71,0-5.05-1.99-10.54-3.1-16.28-3.1-22.12,0-40.51,16.23-43.91,37.4-.08.48-.49.84-.98.84h-16.01c-2.4,0-4.34,1.94-4.34,4.34v3.81c0,2.4,1.94,4.34,4.34,4.34h16.01c.49,0,.9.36.98.84,3.4,21.17,21.79,37.4,43.91,37.4,5.75,0,11.24-1.11,16.28-3.1.23-.09.48-.09.71,0,5.05,1.99,10.54,3.1,16.28,3.1,22.12,0,40.51-16.23,43.92-37.4.08-.48.49-.84.98-.84h16.01c2.4,0,4.34-1.94,4.34-4.34v-3.81c0-2.4-1.94-4.34-4.34-4.34ZM278.89,943.56c0-4.34.87-8.48,2.45-12.26.35-.83,1.54-.82,1.85.02,2,5.32,5.14,10.27,7.8,14.45,7.14,11.21,10.15,17.32,6.09,23.1-.06.09-.14.17-.23.24-.29.22-.57.43-.87.63-1.04.73-2.44.73-3.47,0-8.23-5.8-13.63-15.37-13.63-26.19ZM309.21,948.68c-.15.95-1.44,1.14-1.87.28-1.8-3.59-3.93-6.94-5.81-9.9-6.53-10.24-9.54-16.03-7.07-21.2.3-.62,1.09-.79,1.65-.39,8.17,5.8,13.51,15.34,13.51,26.1,0,1.74-.14,3.45-.41,5.12ZM277.61,975.56c-17.65,0-32.01-14.36-32.01-32.01s14.36-32.01,32.01-32.01h.07c.87,0,1.31,1.03.72,1.66-7.43,7.95-11.99,18.62-11.99,30.34s4.56,22.39,11.99,30.34c.59.63.15,1.66-.72,1.66h-.07ZM310.89,975.56h-.07c-.87,0-1.31-1.03-.72-1.66,7.43-7.95,11.99-18.62,11.99-30.34s-4.55-22.36-11.96-30.3l-.03-.04c-.59-.63-.14-1.66.72-1.67h.07c17.65,0,32.01,14.36,32.01,32.01s-14.36,32.01-32.01,32.01Z"/>
          <path class="cls-4" d="M156.58,1013.81h-16.01c-.49,0-.9-.36-.98-.84-3.4-21.17-21.8-37.4-43.92-37.4-5.75,0-11.24,1.11-16.28,3.1-.23.09-.48.09-.71,0-5.05-1.99-10.54-3.1-16.28-3.1-22.12,0-40.51,16.23-43.91,37.4-.08.48-.49.84-.98.84H1.5c-2.4,0-4.34,1.94-4.34,4.34v3.81c0,2.4,1.94,4.34,4.34,4.34h16.01c.49,0,.9.36.98.84,3.4,21.17,21.79,37.4,43.91,37.4,5.75,0,11.24-1.11,16.28-3.1.23-.09.48-.09.71,0,5.05,1.99,10.54,3.1,16.28,3.1,22.12,0,40.51-16.23,43.92-37.4.08-.48.49-.84.98-.84h16.01c2.4,0,4.34-1.94,4.34-4.34v-3.81c0-2.4-1.94-4.34-4.34-4.34ZM63.68,1020.05c0-4.34.87-8.48,2.45-12.26.35-.83,1.54-.82,1.85.02,2,5.32,5.14,10.27,7.8,14.45,7.14,11.21,10.15,17.32,6.09,23.1-.06.09-.14.17-.23.24-.29.22-.57.43-.87.63-1.04.73-2.44.73-3.47,0-8.23-5.8-13.63-15.37-13.63-26.19ZM93.99,1025.17c-.15.95-1.44,1.14-1.87.28-1.8-3.59-3.93-6.94-5.81-9.9-6.53-10.24-9.54-16.03-7.07-21.2.3-.62,1.09-.79,1.65-.39,8.17,5.8,13.51,15.34,13.51,26.1,0,1.74-.14,3.45-.41,5.12ZM62.4,1052.06c-17.65,0-32.01-14.36-32.01-32.01s14.36-32.01,32.01-32.01h.07c.87,0,1.31,1.03.72,1.66-7.43,7.95-11.99,18.62-11.99,30.34s4.56,22.39,11.99,30.34c.59.63.15,1.66-.72,1.66h-.07ZM95.68,1052.06h-.07c-.87,0-1.31-1.03-.72-1.66,7.43-7.95,11.99-18.62,11.99-30.34s-4.55-22.36-11.96-30.3l-.03-.04c-.59-.63-.14-1.66.72-1.67h.07c17.65,0,32.01,14.36,32.01,32.01s-14.36,32.01-32.01,32.01Z"/>
          <path class="cls-4" d="M300.06,1013.81h-16.01c-.49,0-.9-.36-.98-.84-3.4-21.17-21.8-37.4-43.92-37.4-5.75,0-11.24,1.11-16.28,3.1-.23.09-.48.09-.71,0-5.05-1.99-10.54-3.1-16.28-3.1-22.12,0-40.51,16.23-43.91,37.4-.08.48-.49.84-.98.84h-16.01c-2.4,0-4.34,1.94-4.34,4.34v3.81c0,2.4,1.94,4.34,4.34,4.34h16.01c.49,0,.9.36.98.84,3.4,21.17,21.79,37.4,43.91,37.4,5.75,0,11.24-1.11,16.28-3.1.23-.09.48-.09.71,0,5.05,1.99,10.54,3.1,16.28,3.1,22.12,0,40.51-16.23,43.92-37.4.08-.48.49-.84.98-.84h16.01c2.4,0,4.34-1.94,4.34-4.34v-3.81c0-2.4-1.94-4.34-4.34-4.34ZM207.15,1020.05c0-4.34.87-8.48,2.45-12.26.35-.83,1.54-.82,1.85.02,2,5.32,5.14,10.27,7.8,14.45,7.14,11.21,10.15,17.32,6.09,23.1-.06.09-.14.17-.23.24-.29.22-.57.43-.87.63-1.04.73-2.44.73-3.47,0-8.23-5.8-13.63-15.37-13.63-26.19ZM237.47,1025.17c-.15.95-1.44,1.14-1.87.28-1.8-3.59-3.93-6.94-5.81-9.9-6.53-10.24-9.54-16.03-7.07-21.2.3-.62,1.09-.79,1.65-.39,8.17,5.8,13.51,15.34,13.51,26.1,0,1.74-.14,3.45-.41,5.12ZM205.87,1052.06c-17.65,0-32.01-14.36-32.01-32.01s14.36-32.01,32.01-32.01h.07c.87,0,1.31,1.03.72,1.66-7.43,7.95-11.99,18.62-11.99,30.34s4.56,22.39,11.99,30.34c.59.63.15,1.66-.72,1.66h-.07ZM239.16,1052.06h-.07c-.87,0-1.31-1.03-.72-1.66,7.43-7.95,11.99-18.62,11.99-30.34s-4.55-22.36-11.96-30.3l-.03-.04c-.59-.63-.14-1.66.72-1.67h.07c17.65,0,32.01,14.36,32.01,32.01s-14.36,32.01-32.01,32.01Z"/>
          <path class="cls-4" d="M226.67,1093.42h-16.01c-.49,0-.9-.36-.98-.84-3.4-21.17-21.8-37.4-43.92-37.4-5.75,0-11.24,1.11-16.28,3.1-.23.09-.48.09-.71,0-5.05-1.99-10.54-3.1-16.28-3.1-22.12,0-40.51,16.23-43.91,37.4-.08.48-.49.84-.98.84h-16.01c-2.4,0-4.34,1.94-4.34,4.34v3.81c0,2.4,1.94,4.34,4.34,4.34h16.01c.49,0,.9.36.98.84,3.4,21.17,21.79,37.4,43.91,37.4,5.75,0,11.24-1.11,16.28-3.1.23-.09.48-.09.71,0,5.05,1.99,10.54,3.1,16.28,3.1,22.12,0,40.51-16.23,43.92-37.4.08-.48.49-.84.98-.84h16.01c2.4,0,4.34-1.94,4.34-4.34v-3.81c0-2.4-1.94-4.34-4.34-4.34ZM133.76,1099.66c0-4.34.87-8.48,2.45-12.26.35-.83,1.54-.82,1.85.02,2,5.32,5.14,10.27,7.8,14.45,7.14,11.21,10.15,17.32,6.09,23.1-.06.09-.14.17-.23.24-.29.22-.57.43-.87.63-1.04.73-2.44.73-3.47,0-8.23-5.8-13.63-15.37-13.63-26.19ZM164.08,1104.78c-.15.95-1.44,1.14-1.87.28-1.8-3.59-3.93-6.94-5.81-9.9-6.53-10.24-9.54-16.03-7.07-21.2.3-.62,1.09-.79,1.65-.39,8.17,5.8,13.51,15.34,13.51,26.1,0,1.74-.14,3.45-.41,5.12ZM132.49,1131.67c-17.65,0-32.01-14.36-32.01-32.01s14.36-32.01,32.01-32.01h.07c.87,0,1.31,1.03.72,1.66-7.43,7.95-11.99,18.62-11.99,30.34s4.56,22.39,11.99,30.34c.59.63.15,1.66-.72,1.66h-.07ZM165.77,1131.67h-.07c-.87,0-1.31-1.03-.72-1.66,7.43-7.95,11.99-18.62,11.99-30.34s-4.55-22.36-11.96-30.3l-.03-.04c-.59-.63-.14-1.66.72-1.67h.07c17.65,0,32.01,14.36,32.01,32.01s-14.36,32.01-32.01,32.01Z"/>
          <path class="cls-4" d="M370.15,1093.42h-16.01c-.49,0-.9-.36-.98-.84-3.4-21.17-21.8-37.4-43.92-37.4-5.75,0-11.24,1.11-16.28,3.1-.23.09-.48.09-.71,0-5.05-1.99-10.54-3.1-16.28-3.1-22.12,0-40.51,16.23-43.91,37.4-.08.48-.49.84-.98.84h-16.01c-2.4,0-4.34,1.94-4.34,4.34v3.81c0,2.4,1.94,4.34,4.34,4.34h16.01c.49,0,.9.36.98.84,3.4,21.17,21.79,37.4,43.91,37.4,5.75,0,11.24-1.11,16.28-3.1.23-.09.48-.09.71,0,5.05,1.99,10.54,3.1,16.28,3.1,22.12,0,40.51-16.23,43.92-37.4.08-.48.49-.84.98-.84h16.01c2.4,0,4.34-1.94,4.34-4.34v-3.81c0-2.4-1.94-4.34-4.34-4.34ZM277.24,1099.66c0-4.34.87-8.48,2.45-12.26.35-.83,1.54-.82,1.85.02,2,5.32,5.14,10.27,7.8,14.45,7.14,11.21,10.15,17.32,6.09,23.1-.06.09-.14.17-.23.24-.29.22-.57.43-.87.63-1.04.73-2.44.73-3.47,0-8.23-5.8-13.63-15.37-13.63-26.19ZM307.56,1104.78c-.15.95-1.44,1.14-1.87.28-1.8-3.59-3.93-6.94-5.81-9.9-6.53-10.24-9.54-16.03-7.07-21.2.3-.62,1.09-.79,1.65-.39,8.17,5.8,13.51,15.34,13.51,26.1,0,1.74-.14,3.45-.41,5.12ZM275.96,1131.67c-17.65,0-32.01-14.36-32.01-32.01s14.36-32.01,32.01-32.01h.07c.87,0,1.31,1.03.72,1.66-7.43,7.95-11.99,18.62-11.99,30.34s4.56,22.39,11.99,30.34c.59.63.15,1.66-.72,1.66h-.07ZM309.25,1131.67h-.07c-.87,0-1.31-1.03-.72-1.66,7.43-7.95,11.99-18.62,11.99-30.34s-4.55-22.36-11.96-30.3l-.03-.04c-.59-.63-.14-1.66.72-1.67h.07c17.65,0,32.01,14.36,32.01,32.01s-14.36,32.01-32.01,32.01Z"/>
          <path class="cls-4" d="M153.58,1169.92h-16.01c-.49,0-.9-.36-.98-.84-3.4-21.17-21.8-37.4-43.92-37.4-5.75,0-11.24,1.11-16.28,3.1-.23.09-.48.09-.71,0-5.05-1.99-10.54-3.1-16.28-3.1-22.12,0-40.51,16.23-43.91,37.4-.08.48-.49.84-.98.84H-1.51c-2.4,0-4.34,1.94-4.34,4.34v3.81c0,2.4,1.94,4.34,4.34,4.34H14.5c.49,0,.9.36.98.84,3.4,21.17,21.79,37.4,43.91,37.4,5.75,0,11.24-1.11,16.28-3.1.23-.09.48-.09.71,0,5.05,1.99,10.54,3.1,16.28,3.1,22.12,0,40.51-16.23,43.92-37.4.08-.48.49-.84.98-.84h16.01c2.4,0,4.34-1.94,4.34-4.34v-3.81c0-2.4-1.94-4.34-4.34-4.34ZM60.67,1176.16c0-4.34.87-8.48,2.45-12.26.35-.83,1.54-.82,1.85.02,2,5.32,5.14,10.27,7.8,14.45,7.14,11.21,10.15,17.32,6.09,23.1-.06.09-.14.17-.23.24-.29.22-.57.43-.87.63-1.04.73-2.44.73-3.47,0-8.23-5.8-13.63-15.37-13.63-26.19ZM90.99,1181.27c-.15.95-1.44,1.14-1.87.28-1.8-3.59-3.93-6.94-5.81-9.9-6.53-10.24-9.54-16.03-7.07-21.2.3-.62,1.09-.79,1.65-.39,8.17,5.8,13.51,15.34,13.51,26.1,0,1.74-.14,3.45-.41,5.12ZM59.4,1208.16c-17.65,0-32.01-14.36-32.01-32.01s14.36-32.01,32.01-32.01h.07c.87,0,1.31,1.03.72,1.66-7.43,7.95-11.99,18.62-11.99,30.34s4.56,22.39,11.99,30.34c.59.63.15,1.66-.72,1.66h-.07ZM92.68,1208.16h-.07c-.87,0-1.31-1.03-.72-1.66,7.43-7.95,11.99-18.62,11.99-30.34s-4.55-22.36-11.96-30.3l-.03-.04c-.59-.63-.14-1.66.72-1.67h.07c17.65,0,32.01,14.36,32.01,32.01s-14.36,32.01-32.01,32.01Z"/>
          <path class="cls-4" d="M297.06,1169.92h-16.01c-.49,0-.9-.36-.98-.84-3.4-21.17-21.8-37.4-43.92-37.4-5.75,0-11.24,1.11-16.28,3.1-.23.09-.48.09-.71,0-5.05-1.99-10.54-3.1-16.28-3.1-22.12,0-40.51,16.23-43.91,37.4-.08.48-.49.84-.98.84h-16.01c-2.4,0-4.34,1.94-4.34,4.34v3.81c0,2.4,1.94,4.34,4.34,4.34h16.01c.49,0,.9.36.98.84,3.4,21.17,21.79,37.4,43.91,37.4,5.75,0,11.24-1.11,16.28-3.1.23-.09.48-.09.71,0,5.05,1.99,10.54,3.1,16.28,3.1,22.12,0,40.51-16.23,43.92-37.4.08-.48.49-.84.98-.84h16.01c2.4,0,4.34-1.94,4.34-4.34v-3.81c0-2.4-1.94-4.34-4.34-4.34ZM204.15,1176.16c0-4.34.87-8.48,2.45-12.26.35-.83,1.54-.82,1.85.02,2,5.32,5.14,10.27,7.8,14.45,7.14,11.21,10.15,17.32,6.09,23.1-.06.09-.14.17-.23.24-.29.22-.57.43-.87.63-1.04.73-2.44.73-3.47,0-8.23-5.8-13.63-15.37-13.63-26.19ZM234.47,1181.27c-.15.95-1.44,1.14-1.87.28-1.8-3.59-3.93-6.94-5.81-9.9-6.53-10.24-9.54-16.03-7.07-21.2.3-.62,1.09-.79,1.65-.39,8.17,5.8,13.51,15.34,13.51,26.1,0,1.74-.14,3.45-.41,5.12ZM202.87,1208.16c-17.65,0-32.01-14.36-32.01-32.01s14.36-32.01,32.01-32.01h.07c.87,0,1.31,1.03.72,1.66-7.43,7.95-11.99,18.62-11.99,30.34s4.56,22.39,11.99,30.34c.59.63.15,1.66-.72,1.66h-.07ZM236.16,1208.16h-.07c-.87,0-1.31-1.03-.72-1.66,7.43-7.95,11.99-18.62,11.99-30.34s-4.55-22.36-11.96-30.3l-.03-.04c-.59-.63-.14-1.66.72-1.67h.07c17.65,0,32.01,14.36,32.01,32.01s-14.36,32.01-32.01,32.01Z"/>
          <path class="cls-4" d="M228.06,1248.05h-16.01c-.49,0-.9-.36-.98-.84-3.4-21.17-21.8-37.4-43.92-37.4-5.75,0-11.24,1.11-16.28,3.1-.23.09-.48.09-.71,0-5.05-1.99-10.54-3.1-16.28-3.1-22.12,0-40.51,16.23-43.91,37.4-.08.48-.49.84-.98.84h-16.01c-2.4,0-4.34,1.94-4.34,4.34v3.81c0,2.4,1.94,4.34,4.34,4.34h16.01c.49,0,.9.36.98.84,3.4,21.17,21.79,37.4,43.91,37.4,5.75,0,11.24-1.11,16.28-3.1.23-.09.48-.09.71,0,5.05,1.99,10.54,3.1,16.28,3.1,22.12,0,40.51-16.23,43.92-37.4.08-.48.49-.84.98-.84h16.01c2.4,0,4.34-1.94,4.34-4.34v-3.81c0-2.4-1.94-4.34-4.34-4.34ZM135.15,1254.29c0-4.34.87-8.48,2.45-12.26.35-.83,1.54-.82,1.85.02,2,5.32,5.14,10.27,7.8,14.45,7.14,11.21,10.15,17.32,6.09,23.1-.06.09-.14.17-.23.24-.29.22-.57.43-.87.63-1.04.73-2.44.73-3.47,0-8.23-5.8-13.63-15.37-13.63-26.19ZM165.47,1259.41c-.15.95-1.44,1.14-1.87.28-1.8-3.59-3.93-6.94-5.81-9.9-6.53-10.24-9.54-16.03-7.07-21.2.3-.62,1.09-.79,1.65-.39,8.17,5.8,13.51,15.34,13.51,26.1,0,1.74-.14,3.45-.41,5.12ZM133.88,1286.3c-17.65,0-32.01-14.36-32.01-32.01s14.36-32.01,32.01-32.01h.07c.87,0,1.31,1.03.72,1.66-7.43,7.95-11.99,18.62-11.99,30.34s4.56,22.39,11.99,30.34c.59.63.15,1.66-.72,1.66h-.07ZM167.16,1286.3h-.07c-.87,0-1.31-1.03-.72-1.66,7.43-7.95,11.99-18.62,11.99-30.34s-4.55-22.36-11.96-30.3l-.03-.04c-.59-.63-.14-1.66.72-1.67h.07c17.65,0,32.01,14.36,32.01,32.01s-14.36,32.01-32.01,32.01Z"/>
          <path class="cls-4" d="M371.54,1248.05h-16.01c-.49,0-.9-.36-.98-.84-3.4-21.17-21.8-37.4-43.92-37.4-5.75,0-11.24,1.11-16.28,3.1-.23.09-.48.09-.71,0-5.05-1.99-10.54-3.1-16.28-3.1-22.12,0-40.51,16.23-43.91,37.4-.08.48-.49.84-.98.84h-16.01c-2.4,0-4.34,1.94-4.34,4.34v3.81c0,2.4,1.94,4.34,4.34,4.34h16.01c.49,0,.9.36.98.84,3.4,21.17,21.79,37.4,43.91,37.4,5.75,0,11.24-1.11,16.28-3.1.23-.09.48-.09.71,0,5.05,1.99,10.54,3.1,16.28,3.1,22.12,0,40.51-16.23,43.92-37.4.08-.48.49-.84.98-.84h16.01c2.4,0,4.34-1.94,4.34-4.34v-3.81c0-2.4-1.94-4.34-4.34-4.34ZM278.63,1254.29c0-4.34.87-8.48,2.45-12.26.35-.83,1.54-.82,1.85.02,2,5.32,5.14,10.27,7.8,14.45,7.14,11.21,10.15,17.32,6.09,23.1-.06.09-.14.17-.23.24-.29.22-.57.43-.87.63-1.04.73-2.44.73-3.47,0-8.23-5.8-13.63-15.37-13.63-26.19ZM308.95,1259.41c-.15.95-1.44,1.14-1.87.28-1.8-3.59-3.93-6.94-5.81-9.9-6.53-10.24-9.54-16.03-7.07-21.2.3-.62,1.09-.79,1.65-.39,8.17,5.8,13.51,15.34,13.51,26.1,0,1.74-.14,3.45-.41,5.12ZM277.35,1286.3c-17.65,0-32.01-14.36-32.01-32.01s14.36-32.01,32.01-32.01h.07c.87,0,1.31,1.03.72,1.66-7.43,7.95-11.99,18.62-11.99,30.34s4.56,22.39,11.99,30.34c.59.63.15,1.66-.72,1.66h-.07ZM310.64,1286.3h-.07c-.87,0-1.31-1.03-.72-1.66,7.43-7.95,11.99-18.62,11.99-30.34s-4.55-22.36-11.96-30.3l-.03-.04c-.59-.63-.14-1.66.72-1.67h.07c17.65,0,32.01,14.36,32.01,32.01s-14.36,32.01-32.01,32.01Z"/>
        </g>
      </g>
    </g>
  </g>
</svg>